<svg xmlns="http://www.w3.org/2000/svg" width="52" height="43" viewBox="0 0 52 43">
  <defs>
    <style>
      .cls-1 {
        fill: #fff;
        fill-rule: evenodd;
      }
    </style>
  </defs>
  <path id="shower" class="cls-1" d="M976,384c-0.221,0-.437-0.022-0.654-0.036l0.993-2.981A7,7,0,0,0,976,367a7.064,7.064,0,0,0-1.1.094A13.5,13.5,0,1,0,948,365.5c0,0.03,0,.059,0,0.089A8,8,0,1,0,945,381c0.117,0,.227-0.022.343-0.027l-1,2.994A10.993,10.993,0,0,1,945,362c0.127,0,.25.015,0.375,0.019a16.49,16.49,0,0,1,32.559,2.172A10,10,0,0,1,976,384Zm-22-10-5,15h-3l5-15h3Zm6,3-5,15h-3l5-15h3Zm8-3-5,15h-3l5-15h3Zm6,3-5,15h-3l5-15h3Z" transform="translate(-934 -349)"/>
</svg>
