<svg xmlns="http://www.w3.org/2000/svg" width="375" height="88" viewBox="0 0 375 88">
  <g id="Group_37" data-name="Group 37" transform="translate(-166 -142)">
    <path id="Intersection_1" data-name="Intersection 1" d="M1606-1862v-34.5s61.491,16.232,106.976,14.994,86.809-24.646,147.652-26.842S1981-1889.092,1981-1889.092V-1862Z" transform="translate(-1440 2092)" fill="#fff"/>
    <path id="Intersection_2" data-name="Intersection 2" d="M1606.26-1862l-.075-79.506s-4-4.9,40.685,0,152.3,34.9,214.833,34.141a1037.649,1037.649,0,0,0,119.3-8.918V-1862Z" transform="translate(-1440 2092)" fill="#fff" opacity="0.4"/>
    <path id="Intersection_3" data-name="Intersection 3" d="M1606-1862v-37.22s35.179,2.491,77.071,4.915c30.533,1.767,65.648-.584,85.3-3.462,46.463-6.8,117.691-44.452,160.46-49.338s52.169-2.107,52.169-2.107V-1862Z" transform="translate(-1440 2092)" fill="#fff" opacity="0.32"/>
    <path id="Intersection_4" data-name="Intersection 4" d="M1606-1862v-41.518s33.113,12.551,94.418,0,65.978-19.987,139.428-21.8,141.154,21.8,141.154,21.8V-1862Z" transform="translate(-1440 2092)" fill="#fff" opacity="0.4"/>
  </g>
</svg>
