<svg xmlns="http://www.w3.org/2000/svg" width="889.89" height="90" viewBox="0 0 889.89 90">
  <g id="Group_40" data-name="Group 40" transform="translate(-166 -888)">
    <path id="Intersection_5" data-name="Intersection 5" d="M1606-1860v-36.5s72.96,16.232,126.929,14.994,103-24.646,175.191-26.842,142.825,11.849,142.825,11.849,72.96,16.232,126.929,14.994,103-24.646,175.191-26.842c72.046-2.192,142.54,11.792,142.824,11.848v36.5Z" transform="translate(-1440 2838)" fill="#fff"/>
    <path id="Intersection_6" data-name="Intersection 6" d="M1606.1-1860v-81.5s-4.644-4.9,48.432,0,180.885,34.916,255.156,34.155c73.935-.757,57.467-14.666,140.645-8.658h0l.036,0,1.1.08v.029c25.471,2.674,43.335,14.8,89.469,20.5,46.816,5.782,80.023.525,103.284-2.354,54.993-6.807,139.3-44.468,189.918-49.356s61.746-2.108,61.746-2.108V-1860Z" transform="translate(-1440 2838)" fill="#fff" opacity="0.4"/>
    <path id="Intersection_7" data-name="Intersection 7" d="M1606-1860v-39.2c.227.013,43.481,2.5,92.9,4.917,36.112,1.767,77.641-.584,100.886-3.463,54.951-6.807,139.193-44.468,189.777-49.356,44.485-4.3,58.448-2.667,61.167-2.21,5.784.62-.691-.109,48.5,7.81,51.007,8.21,180.751,34.916,254.967,34.155a1417.153,1417.153,0,0,0,141.691-9.139V-1860Z" transform="translate(-1440 2838)" fill="#fff" opacity="0.32"/>
    <path id="Intersection_8" data-name="Intersection 8" d="M1606-1860v-43.564c.217.067,40.621,12.49,113.069,0,72.643-12.524,78.18-19.944,165.212-21.749s167.259,21.749,167.259,21.749v.412l0-.412s39.235,12.523,111.878,0,78.18-19.944,165.213-21.749,167.257,21.749,167.257,21.749V-1860Z" transform="translate(-1440 2838)" fill="#fff" opacity="0.4"/>
  </g>
</svg>
