<svg xmlns="http://www.w3.org/2000/svg" width="52" height="35" viewBox="0 0 52 35">
  <defs>
    <style>
      .cls-1 {
        fill: currentColor;
        fill-rule: evenodd;
      }
    </style>
  </defs>
  <path id="cloud" class="cls-1" d="M346,297H316v-0.057c-0.33.03-.662,0.057-1,0.057a11,11,0,0,1,0-22c0.127,0,.25.015,0.375,0.019a16.49,16.49,0,0,1,32.559,2.172A10,10,0,0,1,346,297Zm0-17a7.026,7.026,0,0,0-1.121.1,13.35,13.35,0,0,0,.121-1.6,13.5,13.5,0,0,0-27,0c0,0.03,0,.059,0,0.089a8.027,8.027,0,1,0-2,15.331V294h30A7,7,0,0,0,346,280Z" transform="translate(-304 -262)"/>
</svg>
