<svg xmlns="http://www.w3.org/2000/svg" width="39" height="35.25" viewBox="0 0 39 35.25">
  <defs>
    <style>
      .cls-1 {
        fill: currentColor;
        fill-rule: evenodd;
      }
    </style>
  </defs>
  <path id="snow" class="cls-1" d="M620,283h-6.246l3.272,4-1.5,2.5-6.093-6.5H603.1l3.159,5.471,8.691,2.031-1.415,2.549-5.115-.837,3.131,5.424-2.6,1.5-3.122-5.407-1.822,4.82-2.915-.049,2.577-8.512L600.5,284.5l-3.152,5.46,2.587,8.542-2.915.049-1.833-4.848-3.138,5.435-2.6-1.5,3.128-5.419-5.085.832-1.416-2.549,8.661-2.024L597.9,283h-6.308l-6.094,6.5L584,287l3.273-4H581v-3h6.273L584,276l1.5-2.5,6.094,6.5H597.9l-3.163-5.478-8.661-2.024,1.416-2.549,5.085,0.832-3.128-5.418,2.6-1.5,3.138,5.434,1.833-4.848,2.915,0.049-2.587,8.543L600.5,278.5l3.169-5.489-2.577-8.513,2.915-.049,1.822,4.821,3.122-5.407,2.6,1.5-3.131,5.423,5.115-.837,1.415,2.549-8.691,2.031L603.1,280h6.335l6.093-6.5,1.5,2.5-3.272,4H620v3Z" transform="translate(-581 -263.875)"/>
</svg>
