<svg xmlns="http://www.w3.org/2000/svg" width="52" height="47" viewBox="0 0 52 47">
  <defs>
    <style>
      .cls-1 {
        fill: currentColor;
        fill-rule: evenodd;
      }
    </style>
  </defs>
  <path id="shower_hail" data-name="shower, hail" class="cls-1" d="M346,474c-0.221,0-.437-0.022-0.654-0.037l1-3a6.985,6.985,0,1,0-1.466-13.852A13.489,13.489,0,1,0,318,455.5c0,0.03,0,.059,0,0.089A8,8,0,1,0,315,471c0.117,0,.227-0.023.343-0.027l-1,2.994A10.993,10.993,0,0,1,315,452c0.127,0,.25.015,0.375,0.019a16.49,16.49,0,0,1,32.559,2.172A10,10,0,0,1,346,474Zm-27,9h-4v-4h4v4Zm2-19h3l-4,12h-3Zm5,22h-4v-4h4v4Zm-3-7,4-12h3l-4,12h-3Zm10,4h-4v-4h4v4Zm2-19h3l-4,12h-3Zm5,22h-4v-4h4v4Zm1-19h3l-4,12h-3Z" transform="translate(-304 -439)"/>
</svg>
