<svg xmlns="http://www.w3.org/2000/svg" width="47" height="47" viewBox="0 0 47 47">
  <defs>
    <style>
      .cls-1 {
        fill: currentColor;
        fill-rule: evenodd;
      }
    </style>
  </defs>
  <path id="sun" class="cls-1" d="M167,282v-3h7v3h-7Zm-5.893-14.228,4.949-4.95,2.122,2.122-4.95,4.949ZM150.5,294A13.5,13.5,0,1,1,164,280.5,13.5,13.5,0,0,1,150.5,294Zm0-24A10.5,10.5,0,1,0,161,280.5,10.5,10.5,0,0,0,150.5,270ZM149,257h3v7h-3v-7Zm-16.178,7.944,2.122-2.122,4.949,4.95-2.121,2.121ZM134,282h-7v-3h7v3Zm5.893,11.228-4.949,4.95-2.122-2.122,4.95-4.949ZM152,304h-3v-7h3v7Zm16.178-7.944-2.122,2.122-4.949-4.95,2.121-2.121Z" transform="translate(-127 -257)"/>
</svg>
