<svg xmlns="http://www.w3.org/2000/svg" width="37" height="38" viewBox="0 0 37 38">
  <defs>
    <style>
      .cls-1 {
        fill: currentColor;
        fill-rule: evenodd;
      }
    </style>
  </defs>
  <path id="storm" class="cls-1" d="M883,264H855a2.938,2.938,0,0,1-3-3h34A2.938,2.938,0,0,1,883,264Zm-10,21H859a2.938,2.938,0,0,1-3-3h20A2.938,2.938,0,0,1,873,285Zm-5,7h-5a2.938,2.938,0,0,1-3-3h11A2.938,2.938,0,0,1,868,292Zm0,7a2.938,2.938,0,0,1-3-3h6A2.938,2.938,0,0,1,868,299Zm-9-24h26a2.938,2.938,0,0,1-3,3H862A2.938,2.938,0,0,1,859,275Zm2-7h28a2.938,2.938,0,0,1-3,3H864A2.938,2.938,0,0,1,861,268Z" transform="translate(-852 -261)"/>
</svg>
